<mxfile host="app.diagrams.net" agent="Mozilla/5.0 (Windows NT 10.0; Win64; x64; rv:128.0) Gecko/20100101 Firefox/128.0" version="24.7.4">
  <diagram name="Page-1" id="AYwvHbzTtvAeAoLy4DfQ">
    <mxGraphModel dx="733" dy="368" grid="1" gridSize="10" guides="1" tooltips="1" connect="1" arrows="1" fold="1" page="1" pageScale="1" pageWidth="850" pageHeight="1100" math="0" shadow="0">
      <root>
        <mxCell id="0" />
        <mxCell id="1" parent="0" />
        <mxCell id="gQZHZ4HvaIwwzBx-dxvK-12" style="edgeStyle=orthogonalEdgeStyle;rounded=0;orthogonalLoop=1;jettySize=auto;html=1;exitX=1;exitY=0.5;exitDx=0;exitDy=0;entryX=0;entryY=0.5;entryDx=0;entryDy=0;" edge="1" parent="1" source="gQZHZ4HvaIwwzBx-dxvK-2" target="gQZHZ4HvaIwwzBx-dxvK-5">
          <mxGeometry relative="1" as="geometry" />
        </mxCell>
        <mxCell id="gQZHZ4HvaIwwzBx-dxvK-20" value="&lt;font style=&quot;font-size: 14px;&quot;&gt;Implementasi&lt;/font&gt;" style="edgeLabel;html=1;align=center;verticalAlign=middle;resizable=0;points=[];" vertex="1" connectable="0" parent="gQZHZ4HvaIwwzBx-dxvK-12">
          <mxGeometry x="-0.3514" y="1" relative="1" as="geometry">
            <mxPoint x="17" y="14" as="offset" />
          </mxGeometry>
        </mxCell>
        <mxCell id="gQZHZ4HvaIwwzBx-dxvK-2" value="«interface»&lt;br&gt;&lt;b&gt;Interface Menu&lt;/b&gt;" style="html=1;whiteSpace=wrap;" vertex="1" parent="1">
          <mxGeometry x="250" y="94" width="110" height="50" as="geometry" />
        </mxCell>
        <mxCell id="gQZHZ4HvaIwwzBx-dxvK-13" style="edgeStyle=orthogonalEdgeStyle;rounded=0;orthogonalLoop=1;jettySize=auto;html=1;exitX=0.5;exitY=1;exitDx=0;exitDy=0;entryX=0.5;entryY=0;entryDx=0;entryDy=0;" edge="1" parent="1" source="gQZHZ4HvaIwwzBx-dxvK-4" target="gQZHZ4HvaIwwzBx-dxvK-8">
          <mxGeometry relative="1" as="geometry">
            <Array as="points">
              <mxPoint x="540" y="218" />
              <mxPoint x="335" y="218" />
            </Array>
          </mxGeometry>
        </mxCell>
        <mxCell id="gQZHZ4HvaIwwzBx-dxvK-15" style="edgeStyle=orthogonalEdgeStyle;rounded=0;orthogonalLoop=1;jettySize=auto;html=1;exitX=0.5;exitY=1;exitDx=0;exitDy=0;entryX=0.5;entryY=0;entryDx=0;entryDy=0;" edge="1" parent="1" source="gQZHZ4HvaIwwzBx-dxvK-4" target="gQZHZ4HvaIwwzBx-dxvK-9">
          <mxGeometry relative="1" as="geometry">
            <Array as="points">
              <mxPoint x="540" y="218" />
              <mxPoint x="465" y="218" />
            </Array>
          </mxGeometry>
        </mxCell>
        <mxCell id="gQZHZ4HvaIwwzBx-dxvK-16" style="edgeStyle=orthogonalEdgeStyle;rounded=0;orthogonalLoop=1;jettySize=auto;html=1;exitX=0.5;exitY=1;exitDx=0;exitDy=0;entryX=0.5;entryY=0;entryDx=0;entryDy=0;" edge="1" parent="1" source="gQZHZ4HvaIwwzBx-dxvK-4" target="gQZHZ4HvaIwwzBx-dxvK-10">
          <mxGeometry relative="1" as="geometry">
            <Array as="points">
              <mxPoint x="540" y="218" />
              <mxPoint x="595" y="218" />
            </Array>
          </mxGeometry>
        </mxCell>
        <mxCell id="gQZHZ4HvaIwwzBx-dxvK-17" style="edgeStyle=orthogonalEdgeStyle;rounded=0;orthogonalLoop=1;jettySize=auto;html=1;exitX=0.5;exitY=1;exitDx=0;exitDy=0;entryX=0.5;entryY=0;entryDx=0;entryDy=0;" edge="1" parent="1" source="gQZHZ4HvaIwwzBx-dxvK-4" target="gQZHZ4HvaIwwzBx-dxvK-11">
          <mxGeometry relative="1" as="geometry" />
        </mxCell>
        <mxCell id="gQZHZ4HvaIwwzBx-dxvK-4" value="Menu" style="swimlane;fontStyle=1;align=center;verticalAlign=top;childLayout=stackLayout;horizontal=1;startSize=26;horizontalStack=0;resizeParent=1;resizeParentMax=0;resizeLast=0;collapsible=1;marginBottom=0;whiteSpace=wrap;html=1;" vertex="1" parent="1">
          <mxGeometry x="460" y="80" width="160" height="86" as="geometry" />
        </mxCell>
        <mxCell id="gQZHZ4HvaIwwzBx-dxvK-5" value="Judul, Garis, Tabel, dsb" style="text;strokeColor=none;fillColor=none;align=left;verticalAlign=top;spacingLeft=4;spacingRight=4;overflow=hidden;rotatable=0;points=[[0,0.5],[1,0.5]];portConstraint=eastwest;whiteSpace=wrap;html=1;" vertex="1" parent="gQZHZ4HvaIwwzBx-dxvK-4">
          <mxGeometry y="26" width="160" height="26" as="geometry" />
        </mxCell>
        <mxCell id="gQZHZ4HvaIwwzBx-dxvK-6" value="" style="line;strokeWidth=1;fillColor=none;align=left;verticalAlign=middle;spacingTop=-1;spacingLeft=3;spacingRight=3;rotatable=0;labelPosition=right;points=[];portConstraint=eastwest;strokeColor=inherit;" vertex="1" parent="gQZHZ4HvaIwwzBx-dxvK-4">
          <mxGeometry y="52" width="160" height="8" as="geometry" />
        </mxCell>
        <mxCell id="gQZHZ4HvaIwwzBx-dxvK-7" value="Tampilkan(), Inputan(), dsb" style="text;strokeColor=none;fillColor=none;align=left;verticalAlign=top;spacingLeft=4;spacingRight=4;overflow=hidden;rotatable=0;points=[[0,0.5],[1,0.5]];portConstraint=eastwest;whiteSpace=wrap;html=1;" vertex="1" parent="gQZHZ4HvaIwwzBx-dxvK-4">
          <mxGeometry y="60" width="160" height="26" as="geometry" />
        </mxCell>
        <mxCell id="gQZHZ4HvaIwwzBx-dxvK-8" value="Login" style="html=1;whiteSpace=wrap;" vertex="1" parent="1">
          <mxGeometry x="280" y="270" width="110" height="50" as="geometry" />
        </mxCell>
        <mxCell id="gQZHZ4HvaIwwzBx-dxvK-9" value="Dashboard" style="html=1;whiteSpace=wrap;" vertex="1" parent="1">
          <mxGeometry x="410" y="270" width="110" height="50" as="geometry" />
        </mxCell>
        <mxCell id="gQZHZ4HvaIwwzBx-dxvK-10" value="MenuSiswa" style="html=1;whiteSpace=wrap;" vertex="1" parent="1">
          <mxGeometry x="540" y="270" width="110" height="50" as="geometry" />
        </mxCell>
        <mxCell id="gQZHZ4HvaIwwzBx-dxvK-11" value="TabelOrang" style="html=1;whiteSpace=wrap;" vertex="1" parent="1">
          <mxGeometry x="670" y="270" width="110" height="50" as="geometry" />
        </mxCell>
        <mxCell id="gQZHZ4HvaIwwzBx-dxvK-21" value="&lt;font style=&quot;font-size: 14px;&quot;&gt;Mewarisi&lt;/font&gt;" style="edgeLabel;html=1;align=center;verticalAlign=middle;resizable=0;points=[];" vertex="1" connectable="0" parent="1">
          <mxGeometry x="570.0014285714285" y="200" as="geometry" />
        </mxCell>
      </root>
    </mxGraphModel>
  </diagram>
</mxfile>
